<?xml version="1.0" encoding="UTF-8"?>
<!DOCTYPE svg PUBLIC "-//W3C//DTD SVG 1.1//EN" "http://www.w3.org/Graphics/SVG/1.1/DTD/svg11.dtd">
<svg xmlns="http://www.w3.org/2000/svg" version="1.1" width="1200px" height="306px" style="shape-rendering:geometricPrecision; text-rendering:geometricPrecision; image-rendering:optimizeQuality; fill-rule:evenodd; clip-rule:evenodd" xmlns:xlink="http://www.w3.org/1999/xlink">
<g><path style="opacity:1" fill="#f9faf9" d="M 465.5,-0.5 C 468.5,-0.5 471.5,-0.5 474.5,-0.5C 491.539,-0.0907942 505.705,6.57587 517,19.5C 521.356,26.9254 523.856,34.9254 524.5,43.5C 511.5,43.5 498.5,43.5 485.5,43.5C 484.028,34.1989 478.528,29.1989 469,28.5C 456.498,30.3511 452.831,37.0177 458,48.5C 459.41,49.7875 460.91,50.9542 462.5,52C 473.599,56.9222 484.932,61.2556 496.5,65C 524.333,76.1477 532.499,95.6477 521,123.5C 514,134.492 504.167,141.659 491.5,145C 470.373,149.842 450.707,146.509 432.5,135C 421.997,126.334 416.997,115.167 417.5,101.5C 430.167,101.5 442.833,101.5 455.5,101.5C 456.133,112.133 461.8,117.8 472.5,118.5C 484.915,117.616 489.748,111.283 487,99.5C 484.011,95.5094 480.178,92.676 475.5,91C 460.51,86.8943 446.176,81.2276 432.5,74C 418.23,61.3513 414.063,45.8513 420,27.5C 424.58,15.9543 432.747,8.12096 444.5,4C 451.514,1.89904 458.514,0.399035 465.5,-0.5 Z"/></g>
<g><path style="opacity:1" fill="#00cefa" d="M -0.5,287.5 C -0.5,197.5 -0.5,107.5 -0.5,17.5C 2.64421,8.57472 8.97754,3.40805 18.5,2C 107.535,1.01286 196.535,1.34619 285.5,3C 293.612,6.11246 298.445,11.9458 300,20.5C 300.667,108.5 300.667,196.5 300,284.5C 298.445,293.054 293.612,298.888 285.5,302C 196.535,303.654 107.535,303.987 18.5,303C 8.97754,301.592 2.64421,296.425 -0.5,287.5 Z M 124.5,38.5 C 181.023,64.8692 206.523,109.203 201,171.5C 192.431,216.877 166.931,248.21 124.5,265.5C 124.333,254.162 124.5,242.828 125,231.5C 161.563,207.013 175.563,173.013 167,129.5C 160.17,105.842 146.337,87.5092 125.5,74.5C 124.501,62.5185 124.168,50.5185 124.5,38.5 Z M 96.5,72.5 C 121.666,82.8338 138.833,100.834 148,126.5C 157.674,165.662 146.84,197.829 115.5,223C 109.627,226.436 103.627,229.603 97.5,232.5C 96.3351,224.521 96.1684,216.521 97,208.5C 122.928,191.293 132.928,167.293 127,136.5C 122.338,119.183 112.338,105.849 97,96.5C 96.5003,88.5069 96.3336,80.5069 96.5,72.5 Z"/></g>
<g><path style="opacity:1" fill="#f9faf9" d="M 371.5,1.5 C 383.5,1.5 395.5,1.5 407.5,1.5C 407.5,49.5 407.5,97.5 407.5,145.5C 395.5,145.5 383.5,145.5 371.5,145.5C 371.5,97.5 371.5,49.5 371.5,1.5 Z"/></g>
<g><path style="opacity:1" fill="#f9faf9" d="M 536.5,1.5 C 556.503,1.33338 576.503,1.50005 596.5,2C 634.368,4.86826 650.202,25.0349 644,62.5C 638.035,79.463 626.202,89.6297 608.5,93C 596.209,94.3431 583.876,94.8431 571.5,94.5C 571.5,111.5 571.5,128.5 571.5,145.5C 559.833,145.5 548.167,145.5 536.5,145.5C 536.5,97.5 536.5,49.5 536.5,1.5 Z M 571.5,30.5 C 581.301,30.0239 590.967,30.8572 600.5,33C 609.797,39.5383 611.963,48.0383 607,58.5C 605.127,60.7089 602.96,62.5422 600.5,64C 590.9,65.3909 581.233,65.8909 571.5,65.5C 571.5,53.8333 571.5,42.1667 571.5,30.5 Z"/></g>
<g><path style="opacity:1" fill="#f9faf9" d="M 987.5,151.5 C 995.5,151.5 1003.5,151.5 1011.5,151.5C 1011.5,202.167 1011.5,252.833 1011.5,303.5C 1003.5,303.5 995.5,303.5 987.5,303.5C 987.5,252.833 987.5,202.167 987.5,151.5 Z"/></g>
<g><path style="opacity:1" fill="#f9faf9" d="M 432.5,159.5 C 459.788,156.092 482.621,164.425 501,184.5C 504.674,189.844 507.84,195.51 510.5,201.5C 500.851,202.665 491.184,202.832 481.5,202C 469.766,183.632 453.099,176.966 431.5,182C 411.368,188.133 399.868,201.633 397,222.5C 393.418,245.457 400.918,263.624 419.5,277C 436.398,285.915 453.065,285.582 469.5,276C 474.249,271.922 478.249,267.255 481.5,262C 491.167,261.333 500.833,261.333 510.5,262C 501.253,284.635 484.586,298.301 460.5,303C 422.452,309.226 394.619,295.392 377,261.5C 364.962,227.489 372.128,198.322 398.5,174C 408.872,166.64 420.206,161.807 432.5,159.5 Z"/></g>
<g><path style="opacity:1" fill="#f9faf9" d="M 1034.5,162.5 C 1042.5,162.5 1050.5,162.5 1058.5,162.5C 1058.5,171.833 1058.5,181.167 1058.5,190.5C 1067.83,190.5 1077.17,190.5 1086.5,190.5C 1086.5,197.167 1086.5,203.833 1086.5,210.5C 1077.17,210.5 1067.83,210.5 1058.5,210.5C 1058.05,232.878 1058.55,255.211 1060,277.5C 1060.93,280.102 1062.77,281.602 1065.5,282C 1072.49,282.5 1079.49,282.666 1086.5,282.5C 1086.5,289.5 1086.5,296.5 1086.5,303.5C 1074.71,304.063 1063.05,303.229 1051.5,301C 1041.4,296.9 1035.9,289.4 1035,278.5C 1034.5,255.836 1034.33,233.169 1034.5,210.5C 1030.17,210.5 1025.83,210.5 1021.5,210.5C 1021.5,203.833 1021.5,197.167 1021.5,190.5C 1025.83,190.5 1030.17,190.5 1034.5,190.5C 1034.5,181.167 1034.5,171.833 1034.5,162.5 Z"/></g>
<g><path style="opacity:1" fill="#f9faf9" d="M 579.5,305.5 C 576.833,305.5 574.167,305.5 571.5,305.5C 537.703,300.861 520.036,281.361 518.5,247C 518.576,223.163 528.909,205.496 549.5,194C 575.736,183.455 599.236,187.622 620,206.5C 634.077,225.69 637.41,246.69 630,269.5C 620.085,291.207 603.252,303.207 579.5,305.5 Z M 570.5,209.5 C 594.795,209.793 607.795,222.126 609.5,246.5C 607.348,272.494 593.348,284.66 567.5,283C 553.952,278.781 546.119,269.614 544,255.5C 539.783,232.231 548.616,216.897 570.5,209.5 Z"/></g>
<g><path style="opacity:1" fill="#f9faf9" d="M 694.5,188.5 C 711.816,186.438 726.65,191.438 739,203.5C 745.31,212.095 748.643,221.761 749,232.5C 749.5,256.164 749.667,279.831 749.5,303.5C 741.5,303.5 733.5,303.5 725.5,303.5C 725.667,281.497 725.5,259.497 725,237.5C 724.033,220.034 714.866,210.7 697.5,209.5C 683.93,209.904 675.097,216.571 671,229.5C 669.57,254.133 669.07,278.799 669.5,303.5C 661.5,303.5 653.5,303.5 645.5,303.5C 645.5,265.833 645.5,228.167 645.5,190.5C 653.5,190.5 661.5,190.5 669.5,190.5C 669.335,194.182 669.501,197.848 670,201.5C 676.903,194.634 685.07,190.3 694.5,188.5 Z"/></g>
<g><path style="opacity:1" fill="#f9faf9" d="M 812.5,305.5 C 809.833,305.5 807.167,305.5 804.5,305.5C 789.249,304.624 776.749,298.291 767,286.5C 763.144,280.743 761.311,274.409 761.5,267.5C 769.833,267.5 778.167,267.5 786.5,267.5C 788.233,276.401 793.566,281.901 802.5,284C 812.149,286.05 820.316,283.55 827,276.5C 828.904,271.856 828.07,267.689 824.5,264C 810.337,258.542 796.004,253.542 781.5,249C 762.927,238.605 758.427,223.772 768,204.5C 775.648,195.258 785.481,190.092 797.5,189C 812.949,186.57 826.949,189.903 839.5,199C 846.875,206.255 850.542,215.089 850.5,225.5C 842.472,225.831 834.472,225.498 826.5,224.5C 823.657,214.167 816.824,208.833 806,208.5C 799.311,208.504 793.644,210.837 789,215.5C 786.625,220.623 787.458,225.123 791.5,229C 802.358,234.176 813.691,238.176 825.5,241C 851.704,250.284 858.204,267.118 845,291.5C 835.816,300.167 824.983,304.833 812.5,305.5 Z"/></g>
<g><path style="opacity:1" fill="#f9faf9" d="M 1199.5,231.5 C 1199.5,239.5 1199.5,247.5 1199.5,255.5C 1170.83,255.5 1142.17,255.5 1113.5,255.5C 1118.39,278.452 1132.39,287.618 1155.5,283C 1162.57,280.763 1167.57,276.263 1170.5,269.5C 1179.14,268.502 1187.81,268.169 1196.5,268.5C 1192.45,283.729 1183.12,294.562 1168.5,301C 1162.17,303.095 1155.84,304.595 1149.5,305.5C 1146.83,305.5 1144.17,305.5 1141.5,305.5C 1111.14,301.979 1093.64,284.979 1089,254.5C 1086.11,230.807 1093.95,211.64 1112.5,197C 1132.52,186.49 1152.85,185.824 1173.5,195C 1187.46,203.42 1196.12,215.587 1199.5,231.5 Z M 1142.5,208.5 C 1155.37,208.516 1165.21,213.849 1172,224.5C 1173.77,228.313 1174.61,232.313 1174.5,236.5C 1154.5,236.5 1134.5,236.5 1114.5,236.5C 1116.86,220.135 1126.2,210.802 1142.5,208.5 Z"/></g>
<g><path style="opacity:1" fill="#f9faf9" d="M 864.5,190.5 C 872.5,190.5 880.5,190.5 888.5,190.5C 888.059,215.205 888.559,239.871 890,264.5C 895.905,279.875 907.071,286.041 923.5,283C 932.649,280.842 938.816,275.342 942,266.5C 943.462,241.218 943.962,215.885 943.5,190.5C 951.833,190.5 960.167,190.5 968.5,190.5C 968.5,228.167 968.5,265.833 968.5,303.5C 960.167,303.5 951.833,303.5 943.5,303.5C 943.665,299.818 943.499,296.152 943,292.5C 930.839,303.273 916.673,307.106 900.5,304C 879.091,298.923 867.258,285.423 865,263.5C 864.5,239.169 864.333,214.836 864.5,190.5 Z"/></g>
</svg>
