<?xml version="1.0" encoding="UTF-8"?>
<svg xmlns="http://www.w3.org/2000/svg" version="1.1" viewBox="0 0 300 303" width="32" height="32" style="shape-rendering:geometricPrecision; fill-rule:evenodd; clip-rule:evenodd">
  <!-- Fundo arredondado azul ISP Consulte -->
  <g>
    <path style="opacity:1" fill="#00cefa" d="M -0.5,287.5 C -0.5,197.5 -0.5,107.5 -0.5,17.5C 2.64421,8.57472 8.97754,3.40805 18.5,2C 107.535,1.01286 196.535,1.34619 285.5,3C 293.612,6.11246 298.445,11.9458 300,20.5C 300.667,108.5 300.667,196.5 300,284.5C 298.445,293.054 293.612,298.888 285.5,302C 196.535,303.654 107.535,303.987 18.5,303C 8.97754,301.592 2.64421,296.425 -0.5,287.5 Z M 124.5,38.5 C 181.023,64.8692 206.523,109.203 201,171.5C 192.431,216.877 166.931,248.21 124.5,265.5C 124.333,254.162 124.5,242.828 125,231.5C 161.563,207.013 175.563,173.013 167,129.5C 160.17,105.842 146.337,87.5092 125.5,74.5C 124.501,62.5185 124.168,50.5185 124.5,38.5 Z M 96.5,72.5 C 121.666,82.8338 138.833,100.834 148,126.5C 157.674,165.662 146.84,197.829 115.5,223C 109.627,226.436 103.627,229.603 97.5,232.5C 96.3351,224.521 96.1684,216.521 97,208.5C 122.928,191.293 132.928,167.293 127,136.5C 122.338,119.183 112.338,105.849 97,96.5C 96.5003,88.5069 96.3336,80.5069 96.5,72.5 Z"/>
  </g>
</svg>
